<?xml version="1.0" encoding="utf-8"?>
<!-- Generator: Adobe Illustrator 23.0.1, SVG Export Plug-In . SVG Version: 6.00 Build 0)  -->
<svg version="1.1" id="Ebene_1" xmlns="http://www.w3.org/2000/svg" xmlns:xlink="http://www.w3.org/1999/xlink" x="0px" y="0px"
	 viewBox="0 0 566.93 566.93" style="enable-background:new 0 0 566.93 566.93;" xml:space="preserve">
<style type="text/css">
	.st0{display:none;}
	.st1{display:inline;fill:#225051;}
	.st2{display:inline;}
	.st3{fill:#FFFFFF;}
	.st4{display:inline;fill:#235051;stroke:#235051;stroke-width:10;stroke-miterlimit:10;}
	.st5{display:inline;fill:none;stroke:#FFFFFF;stroke-width:5;stroke-miterlimit:10;}
	.st6{fill:#235051;}
	.st7{display:inline;fill:#235051;}
	.st8{display:inline;fill:#FFFFFF;}
	.st9{fill:#225051;}
</style>
<g id="Ebene_5_Kopie" class="st0">
	<rect class="st1" width="566.93" height="566.93"/>
	<g class="st2">
		<path class="st3" d="M462.22,88.32H104.7c-14.13,0-25.59,11.46-25.59,25.59v253.86v130.84l103.28-105.25h279.83
			c14.13,0,25.59-11.46,25.59-25.59V113.91C487.82,99.78,476.36,88.32,462.22,88.32z"/>
	</g>
	<path class="st4" d="M399.78,257.74c6.66-50.95-21.41-101.22-68.27-122.24l-9.84,21.93c37.26,16.71,59.57,56.68,54.28,97.19
		c-2.62,20.07-11.48,38.34-25.31,52.63l-9.77-20.24l-40.42,59.44l71.68,5.3l-10.52-21.79C382.62,311.25,396.1,285.91,399.78,257.74z
		"/>
	<path class="st4" d="M190.97,230.44c2.62-20.07,11.48-38.34,25.31-52.63l9.77,20.24l40.42-59.44l-71.68-5.3l10.52,21.79
		c-21.01,18.72-34.49,44.06-38.17,72.23c-6.66,50.95,21.41,101.22,68.27,122.24l9.84-21.93C208,310.92,185.67,270.95,190.97,230.44z
		"/>
</g>
<g id="Ebene_5_Kopie_Kopie" class="st0">
	<rect class="st1" width="566.93" height="566.93"/>
	<g class="st2">
		<path class="st3" d="M447.78,87.49H119.15c-31.5,0-57.03,25.53-57.03,57.03v209c0,31.5,25.53,57.03,57.03,57.03h62.04v109.22
			l102.79-109.22h163.8c31.5,0,57.03-25.53,57.03-57.03v-209C504.81,113.03,479.27,87.49,447.78,87.49z"/>
	</g>
	<path class="st4" d="M399.78,267.74c6.66-50.95-21.41-101.22-68.27-122.24l-9.84,21.93c37.26,16.71,59.57,56.68,54.28,97.19
		c-2.62,20.07-11.48,38.34-25.31,52.63l-9.77-20.24l-40.42,59.44l71.68,5.3l-10.52-21.79C382.62,321.25,396.1,295.91,399.78,267.74z
		"/>
	<path class="st4" d="M190.97,240.44c2.62-20.07,11.48-38.34,25.31-52.63l9.77,20.24l40.42-59.44l-71.68-5.3l10.52,21.79
		c-21.01,18.72-34.49,44.06-38.17,72.23c-6.66,50.95,21.41,101.22,68.27,122.24l9.84-21.93C208,320.92,185.67,280.95,190.97,240.44z
		"/>
</g>
<g id="Ebene_1_Kopie_2" class="st0">
	<rect class="st1" width="566.93" height="566.93"/>
	<circle class="st5" cx="283.46" cy="283.46" r="206.83"/>
	<ellipse class="st5" cx="283.46" cy="283.46" rx="124.1" ry="206.83"/>
	<ellipse class="st5" cx="283.46" cy="283.46" rx="41.37" ry="206.83"/>
	<path class="st5" d="M283.46,386.88c-61.25,0-116.27,13.32-154.15,34.47c37.87,42.31,92.89,68.94,154.15,68.94
		s116.27-26.63,154.15-68.94C399.74,400.2,344.72,386.88,283.46,386.88z"/>
	<path class="st5" d="M283.46,180.05c61.25,0,116.27-13.32,154.15-34.47c-37.87-42.31-92.89-68.94-154.15-68.94
		s-116.27,26.63-154.15,68.94C167.19,166.73,222.21,180.05,283.46,180.05z"/>
	<line class="st5" x1="490.29" y1="283.46" x2="76.64" y2="283.46"/>
	<g class="st2">
		<path class="st3" d="M357.74,284.11h-27.07c-14.99,0-27.18-13.74-27.18-30.62V141.21c0-16.89,12.19-30.62,27.18-30.62H503.4
			c14.99,0,27.18,13.74,27.18,30.62v112.27c0,16.89-12.2,30.62-27.18,30.62h-89.43l-56.23,46.15L357.74,284.11L357.74,284.11z"/>
		<path class="st6" d="M503.4,114.09c13.08,0,23.68,12.14,23.68,27.12v112.27c0,14.98-10.6,27.12-23.68,27.12h-90.69l-51.48,42.25
			V280.6h-30.57c-13.08,0-23.68-12.14-23.68-27.12V141.21c0-14.98,10.6-27.12,23.68-27.12L503.4,114.09 M503.4,107.09H330.67
			c-16.92,0-30.68,15.31-30.68,34.12v112.27c0,18.81,13.76,34.12,30.68,34.12h23.57v35.25v14.8l11.44-9.39l49.54-40.66h88.18
			c16.92,0,30.68-15.31,30.68-34.12V141.21C534.09,122.4,520.32,107.09,503.4,107.09L503.4,107.09z"/>
	</g>
	<g class="st2">
		<path class="st3" d="M424.76,244.24c20.33-3.31,36.95-19.59,39.76-41.06s-9.08-41.47-27.87-49.9"/>
	</g>
	<path class="st7" d="M479.68,205.16c3.59-27.44-11.53-54.51-36.77-65.83l-5.3,11.81c20.06,9,32.08,30.52,29.23,52.34
		c-1.41,10.81-6.18,20.65-13.63,28.34l-5.26-10.9l-21.77,32.01l38.6,2.85l-5.67-11.73C470.44,233.98,477.7,220.33,479.68,205.16z"/>
	<g class="st2">
		<path class="st3" d="M409.31,149.7c-20.33,3.31-36.95,19.59-39.76,41.06s9.08,41.47,27.87,49.9"/>
	</g>
	<path class="st7" d="M367.22,190.46c1.41-10.81,6.18-20.65,13.63-28.34l5.26,10.9L407.89,141l-38.6-2.85l5.67,11.73
		c-11.32,10.08-18.57,23.73-20.56,38.9c-3.59,27.44,11.53,54.51,36.77,65.83l5.3-11.81C376.39,233.8,364.37,212.28,367.22,190.46z"
		/>
</g>
<g id="Ebene_1_Kopie" class="st0">
	<rect class="st1" width="566.93" height="566.93"/>
	<path class="st8" d="M442.51,283.46c0-39.83-14.72-76.29-39-104.22l0.07-0.04l-1.58-1.77c-11.42-12.75-24.71-23.44-39.26-31.81
		c-0.98-0.57-1.97-1.12-2.97-1.67c-0.09-0.05-0.17-0.1-0.26-0.15c-21.36-11.68-45.69-18.6-71.53-19.32c-0.1,0-0.21-0.01-0.31-0.01
		c-1.4-0.04-2.8-0.06-4.21-0.06s-2.81,0.02-4.21,0.06c-0.1,0-0.21,0.01-0.31,0.01c-25.84,0.72-50.17,7.64-71.53,19.32
		c-0.11,0.06-0.21,0.12-0.32,0.18c-0.98,0.54-1.95,1.08-2.91,1.63c-14.56,8.37-27.85,19.06-39.26,31.81l-1.58,1.77l0.07,0.04
		c-24.28,27.93-39,64.39-39,104.22s14.72,76.29,39.01,104.22l-0.08,0.04l1.58,1.77c11.42,12.76,24.71,23.45,39.27,31.82
		c0.92,0.53,1.85,1.05,2.78,1.56c0.15,0.08,0.29,0.17,0.44,0.25c21.36,11.68,45.68,18.59,71.52,19.32c0.1,0,0.21,0.01,0.31,0.01
		c1.4,0.04,2.8,0.06,4.21,0.06s2.81-0.02,4.21-0.06c0.1,0,0.21-0.01,0.31-0.01c25.84-0.72,50.16-7.64,71.52-19.32
		c0.17-0.09,0.34-0.19,0.52-0.29c0.91-0.5,1.81-1,2.71-1.52c14.56-8.37,27.85-19.06,39.27-31.82l1.58-1.77l-0.08-0.04
		C427.79,359.76,442.51,323.3,442.51,283.46z M361.45,417.66c-0.35,0.2-0.7,0.41-1.05,0.61c-0.47,0.27-0.95,0.53-1.42,0.8
		c-0.77,0.43-1.55,0.86-2.33,1.28c-0.16,0.08-0.31,0.17-0.47,0.25c-14.39,7.63-29.95,12.98-46.09,15.8
		c15.63-7.37,29.93-21.25,41.67-40.83c3.92-6.53,7.45-13.52,10.58-20.91c12.91,3.78,24.77,8.49,35.14,14.05
		C387.01,400.05,374.87,409.83,361.45,417.66z M210.28,420.35c-0.78-0.42-1.56-0.85-2.33-1.28c-0.47-0.26-0.95-0.53-1.42-0.8
		c-0.35-0.2-0.7-0.41-1.05-0.61c-13.42-7.83-25.56-17.61-36.04-28.95c10.37-5.56,22.24-10.27,35.14-14.05
		c3.13,7.39,6.66,14.38,10.58,20.91c11.75,19.58,26.04,33.46,41.67,40.83c-16.14-2.82-31.69-8.16-46.08-15.79
		C210.6,420.52,210.44,420.43,210.28,420.35z M205.47,149.27c0.35-0.2,0.7-0.41,1.06-0.62c0.47-0.27,0.95-0.53,1.42-0.79
		c0.78-0.43,1.55-0.86,2.33-1.28c0.16-0.08,0.31-0.16,0.47-0.25c14.39-7.63,29.95-12.98,46.09-15.8
		c-15.63,7.37-29.93,21.25-41.67,40.83c-3.92,6.53-7.45,13.52-10.58,20.91c-12.91-3.78-24.77-8.49-35.14-14.05
		C179.91,166.88,192.06,157.1,205.47,149.27z M356.64,146.58c0.79,0.42,1.57,0.86,2.35,1.29c0.47,0.26,0.94,0.52,1.4,0.78
		c0.36,0.21,0.72,0.42,1.08,0.63c13.41,7.83,25.55,17.61,36.02,28.94c-10.37,5.56-22.24,10.27-35.14,14.05
		c-3.13-7.39-6.66-14.38-10.58-20.91c-11.75-19.58-26.04-33.46-41.67-40.83c16.14,2.82,31.7,8.17,46.1,15.8
		C356.34,146.42,356.49,146.5,356.64,146.58z M379.64,281.56c-0.22-30.95-5.73-60.5-15.84-85.76c13.36-3.94,25.61-8.86,36.3-14.68
		c23.63,26.9,38.12,62.01,38.59,100.44H379.64z M312.67,361.51c2.63-22.99,4.05-49.02,4.12-76.14h59.05
		c-0.23,31.32-5.99,60.44-15.73,84.71C345.34,365.98,329.32,363.08,312.67,361.51z M358.65,373.6
		c-15.27,35.86-39.39,60.38-66.94,64.49c5.18-5.76,10.86-18.19,15.85-43.13c1.81-9.05,3.37-19.02,4.67-29.68
		C328.52,366.81,344.19,369.63,358.65,373.6z M206.82,370.07c-9.74-24.27-15.51-53.39-15.73-84.71h59.05
		c0.06,27.12,1.49,53.16,4.12,76.14C237.6,363.08,221.59,365.98,206.82,370.07z M254.7,365.28c1.3,10.66,2.86,20.62,4.67,29.68
		c4.99,24.94,10.67,37.37,15.85,43.13c-27.56-4.11-51.67-28.63-66.94-64.49C222.74,369.63,238.41,366.81,254.7,365.28z
		 M254.26,205.42c-2.63,22.99-4.05,49.02-4.12,76.14h-59.05c0.22-31.32,5.99-60.44,15.73-84.71
		C221.59,200.95,237.6,203.85,254.26,205.42z M208.28,193.33c15.27-35.86,39.39-60.38,66.94-64.49
		c-5.18,5.76-10.86,18.19-15.85,43.13c-1.81,9.05-3.37,19.02-4.67,29.68C238.4,200.12,222.74,197.3,208.28,193.33z M258.04,205.75
		c8.35,0.68,16.85,1.04,25.42,1.04s17.07-0.35,25.42-1.04c2.62,22.86,4.04,48.78,4.1,75.81h-59.05
		C254,254.54,255.42,228.61,258.04,205.75z M253.94,285.36h59.05c-0.06,27.03-1.49,52.95-4.1,75.81
		c-8.35-0.68-16.85-1.04-25.42-1.04s-17.07,0.35-25.42,1.04C255.42,338.32,254,312.39,253.94,285.36z M316.79,281.56
		c-0.06-27.12-1.49-53.16-4.12-76.14c16.65-1.57,32.67-4.47,47.44-8.56c9.74,24.27,15.51,53.39,15.73,84.71h-59.05V281.56z
		 M312.22,201.65c-1.3-10.66-2.86-20.62-4.67-29.68c-4.99-24.94-10.67-37.37-15.85-43.13c27.56,4.11,51.67,28.63,66.94,64.49
		C344.19,197.3,328.52,200.12,312.22,201.65z M283.6,128.22c2.86,0.11,12.1,3.89,20.22,44.5c1.79,8.93,3.33,18.75,4.61,29.26
		c-8.2,0.67-16.55,1.01-24.97,1.01s-16.77-0.35-24.97-1.01c1.28-10.51,2.83-20.33,4.61-29.26c8.12-40.61,17.36-44.38,20.22-44.5
		c0.05,0,0.09,0,0.14,0S283.56,128.22,283.6,128.22z M203.13,195.8c-10.11,25.26-15.62,54.81-15.84,85.76h-59.05
		c0.46-38.43,14.96-73.54,38.59-100.44C177.51,186.94,189.77,191.87,203.13,195.8z M187.29,285.36c0.22,30.95,5.73,60.5,15.84,85.76
		c-13.36,3.94-25.61,8.87-36.3,14.68c-23.63-26.9-38.12-62.01-38.59-100.44H187.29z M283.33,438.71c-2.86-0.11-12.1-3.89-20.22-44.5
		c-1.79-8.93-3.33-18.75-4.61-29.26c8.2-0.67,16.55-1.01,24.97-1.01s16.77,0.35,24.97,1.01c-1.28,10.51-2.83,20.33-4.61,29.26
		c-8.12,40.61-17.36,44.38-20.22,44.5c-0.05,0-0.09,0-0.14,0S283.37,438.71,283.33,438.71z M363.8,371.13
		c10.11-25.26,15.62-54.81,15.84-85.76h59.05c-0.46,38.43-14.96,73.54-38.59,100.44C389.41,379.99,377.16,375.06,363.8,371.13z"/>
	<path class="st8" d="M462.46,150.48l-12.19,9.07c26.81,36.03,40.98,78.88,40.98,123.91c0,55.5-21.61,107.68-60.86,146.92
		s-91.42,60.86-146.92,60.86c-22.95,0-45.37-3.7-66.81-10.99l14.09-26.23l-75.73,2.33l39.87,64.42l14.48-26.95
		c23.74,8.37,48.61,12.62,74.1,12.62c59.56,0,115.55-23.19,157.67-65.31c42.11-42.11,65.31-98.11,65.31-157.67
		C506.44,235.14,491.23,189.15,462.46,150.48z"/>
	<path class="st8" d="M411.91,110.57l-39.87-64.42L357.56,73.1c-23.74-8.37-48.62-12.61-74.1-12.61
		c-59.56,0-115.55,23.19-157.67,65.31c-42.11,42.11-65.31,98.11-65.31,157.67c0,48.33,15.21,94.31,43.99,132.98l12.19-9.07
		c-26.81-36.03-40.98-78.88-40.98-123.91c0-55.5,21.61-107.68,60.86-146.92c39.24-39.24,91.42-60.86,146.92-60.86
		c22.95,0,45.37,3.7,66.81,10.99l-14.09,26.23L411.91,110.57z"/>
</g>
<rect x="0.01" class="st9" width="566.92" height="566.93"/>
<path class="st3" d="M397.49,388.7c-10.48,11.35-22.62,21.13-36.04,28.96c-0.35,0.2-0.7,0.41-1.05,0.61
	c-0.47,0.27-0.95,0.53-1.42,0.8c-0.77,0.43-1.55,0.86-2.33,1.28c-0.16,0.08-0.32,0.16-0.47,0.25
	c-14.39,7.63-29.95,12.97-46.09,15.79c15.63-7.37,29.93-21.25,41.68-40.83c3.91-6.52,7.45-13.52,10.58-20.91
	C375.25,378.43,387.12,383.15,397.49,388.7z"/>
<path class="st3" d="M358.65,373.6c-15.27,35.86-39.39,60.38-66.95,64.49c5.19-5.76,10.86-18.19,15.85-43.13
	c1.81-9.06,3.37-19.02,4.67-29.68C328.52,366.81,344.19,369.63,358.65,373.6z"/>
<path class="st3" d="M308.44,364.95c-1.29,10.51-2.83,20.34-4.61,29.26c-8.13,40.61-17.37,44.39-20.23,44.5
	c-0.04,0-0.09,0.01-0.14,0.01c-0.04,0-0.09-0.01-0.13-0.01c-2.87-0.11-12.11-3.89-20.23-44.5c-1.78-8.92-3.32-18.75-4.61-29.26
	c8.21-0.66,16.55-1.01,24.97-1.01C291.89,363.94,300.23,364.29,308.44,364.95z"/>
<path class="st3" d="M275.23,438.09c-27.56-4.11-51.68-28.63-66.95-64.49c14.46-3.97,30.13-6.79,46.42-8.32
	c1.3,10.66,2.87,20.62,4.68,29.68C264.37,419.9,270.04,432.33,275.23,438.09z"/>
<path class="st3" d="M256.84,436.39c-16.14-2.82-31.7-8.16-46.09-15.79c-0.15-0.08-0.31-0.17-0.47-0.25
	c-0.78-0.42-1.56-0.85-2.33-1.28c-0.48-0.27-0.95-0.53-1.42-0.8c-0.36-0.2-0.7-0.41-1.05-0.61c-13.42-7.83-25.56-17.61-36.04-28.96
	c10.37-5.55,22.23-10.27,35.14-14.05c3.13,7.39,6.67,14.39,10.58,20.91C226.91,415.14,241.2,429.02,256.84,436.39z"/>
<path class="st3" d="M203.13,371.13c-13.36,3.93-25.62,8.86-36.3,14.68c-23.64-26.9-38.13-62.02-38.59-100.45h59.05
	C187.51,316.32,193.02,345.87,203.13,371.13z"/>
<path class="st3" d="M254.26,361.51c-16.66,1.57-32.67,4.47-47.44,8.56c-9.74-24.26-15.51-53.38-15.73-84.71h59.05
	C250.2,312.49,251.63,338.52,254.26,361.51z"/>
<path class="st3" d="M312.99,285.36c-0.06,27.03-1.49,52.96-4.1,75.82c-8.36-0.69-16.86-1.04-25.43-1.04
	c-8.56,0-17.06,0.35-25.42,1.04c-2.62-22.86-4.04-48.79-4.1-75.82H312.99z"/>
<path class="st3" d="M375.84,285.36c-0.22,31.33-5.99,60.45-15.73,84.71c-14.77-4.09-30.79-6.99-47.44-8.56
	c2.63-22.99,4.06-49.02,4.12-76.15H375.84z"/>
<path class="st3" d="M438.69,285.36c-0.46,38.43-14.95,73.55-38.59,100.45c-10.69-5.82-22.94-10.75-36.3-14.68
	c10.11-25.26,15.62-54.81,15.84-85.77L438.69,285.36L438.69,285.36z"/>
<path class="st3" d="M438.69,281.56h-59.05c-0.22-30.95-5.73-60.5-15.84-85.76c13.36-3.93,25.61-8.86,36.3-14.68
	C423.74,208.02,438.23,243.14,438.69,281.56z"/>
<path class="st3" d="M397.49,178.22c-10.37,5.56-22.24,10.28-35.14,14.06c-3.13-7.39-6.67-14.39-10.58-20.92
	c-11.75-19.57-26.05-33.45-41.68-40.83c16.15,2.83,31.71,8.17,46.1,15.81c0.15,0.08,0.3,0.16,0.45,0.24
	c0.79,0.42,1.57,0.85,2.36,1.29c0.46,0.26,0.93,0.52,1.4,0.78c0.36,0.21,0.71,0.42,1.07,0.63
	C374.88,157.11,387.02,166.89,397.49,178.22z"/>
<path class="st3" d="M358.65,193.33c-14.46,3.97-30.13,6.79-46.43,8.32c-1.3-10.66-2.86-20.63-4.67-29.68
	c-4.99-24.94-10.66-37.37-15.85-43.13C319.26,132.95,343.38,157.47,358.65,193.33z"/>
<path class="st3" d="M375.84,281.56h-59.05c-0.06-27.12-1.49-53.15-4.12-76.14c16.65-1.57,32.67-4.47,47.44-8.56
	C369.85,221.12,375.62,250.24,375.84,281.56z"/>
<path class="st3" d="M312.99,281.56h-59.05c0.06-27.02,1.48-52.95,4.1-75.81c8.36,0.69,16.86,1.04,25.42,1.04
	c8.57,0,17.07-0.35,25.43-1.04C311.51,228.61,312.93,254.54,312.99,281.56z"/>
<path class="st3" d="M308.44,201.98c-8.21,0.66-16.55,1.01-24.98,1.01c-8.42,0-16.76-0.35-24.97-1.01
	c1.29-10.51,2.83-20.34,4.61-29.27c8.12-40.6,17.36-44.38,20.23-44.49c0.04,0,0.09-0.01,0.13-0.01c0.05,0,0.1,0.01,0.14,0.01
	c2.86,0.11,12.1,3.89,20.23,44.49C305.61,181.64,307.15,191.47,308.44,201.98z"/>
<path class="st3" d="M275.23,128.84c-5.19,5.76-10.86,18.19-15.85,43.13c-1.81,9.05-3.38,19.02-4.68,29.68
	c-16.3-1.53-31.96-4.35-46.42-8.32C223.55,157.47,247.67,132.95,275.23,128.84z"/>
<path class="st3" d="M254.26,205.42c-2.63,22.99-4.06,49.02-4.12,76.14h-59.05c0.22-31.32,5.99-60.44,15.73-84.7
	C221.59,200.95,237.6,203.85,254.26,205.42z"/>
<path class="st3" d="M256.84,130.53c-15.64,7.38-29.93,21.26-41.68,40.83c-3.91,6.53-7.45,13.53-10.58,20.92
	c-12.91-3.78-24.77-8.5-35.14-14.06c10.47-11.34,22.62-21.12,36.03-28.95c0.35-0.2,0.7-0.41,1.06-0.61c0.47-0.27,0.94-0.53,1.42-0.8
	c0.77-0.43,1.55-0.86,2.33-1.28c0.16-0.08,0.31-0.17,0.47-0.25C225.14,138.7,240.7,133.35,256.84,130.53z"/>
<path class="st3" d="M203.13,195.8c-10.11,25.26-15.62,54.81-15.84,85.76h-59.05c0.46-38.42,14.95-73.54,38.59-100.44
	C177.51,186.94,189.77,191.87,203.13,195.8z"/>
<path class="st3" d="M462.46,150.48l-12.19,9.07c26.81,36.03,40.98,78.88,40.98,123.91c0,55.5-21.61,107.68-60.86,146.92
	s-91.42,60.86-146.92,60.86c-22.95,0-45.37-3.7-66.81-10.99l14.09-26.23l-75.73,2.33l39.87,64.42l14.48-26.95
	c23.74,8.37,48.61,12.62,74.1,12.62c59.56,0,115.55-23.19,157.67-65.31c42.11-42.11,65.31-98.11,65.31-157.67
	C506.44,235.14,491.23,189.15,462.46,150.48z"/>
<path class="st3" d="M411.91,110.57l-39.87-64.42L357.56,73.1c-23.74-8.37-48.62-12.61-74.1-12.61
	c-59.56,0-115.55,23.19-157.67,65.31c-42.11,42.11-65.31,98.11-65.31,157.67c0,48.33,15.21,94.31,43.99,132.98l12.19-9.07
	c-26.81-36.03-40.98-78.88-40.98-123.91c0-55.5,21.61-107.68,60.86-146.92c39.24-39.24,91.42-60.86,146.92-60.86
	c22.95,0,45.37,3.7,66.81,10.99l-14.09,26.23L411.91,110.57z"/>
<path class="st9" d="M445.51,283.46c0-37.78-13.24-74.36-37.37-103.4l0.15-0.09l-4.05-4.54c-11.51-12.87-24.97-23.77-39.99-32.4
	c-0.98-0.57-1.97-1.12-2.97-1.67c-0.13-0.08-0.27-0.15-0.41-0.22c-22.23-12.14-47.4-18.94-72.9-19.66c-0.1-0.01-0.21-0.01-0.22-0.01
	c-2.85-0.08-5.8-0.08-8.5,0c-0.11,0-0.21,0-0.39,0.01c-25.42,0.72-50.63,7.53-72.88,19.69l-0.33,0.19c-1,0.55-1.99,1.1-2.96,1.67
	c-15.01,8.62-28.47,19.52-40,32.41l-1.59,1.77l-2.55,2.97l0.1,0.05c-24.05,29.03-37.25,65.54-37.25,103.25s13.2,74.23,37.25,103.26
	l-0.18,0.09l4.22,4.69c11.52,12.87,24.98,23.78,40.01,32.42c0.94,0.54,1.89,1.07,2.86,1.61l0.42,0.24
	c22.59,12.33,47.11,18.96,72.97,19.69c0.1,0,0.2,0,0.24,0.01c1.42,0.03,2.84,0.05,4.27,0.05s2.85-0.02,4.21-0.05
	c0.09,0,0.19,0,0.29-0.01h0.1c25.44-0.72,50.63-7.53,72.84-19.67c0.14-0.08,0.28-0.16,0.43-0.24l0.62-0.35
	c0.76-0.42,1.52-0.84,2.27-1.28c15.03-8.64,28.49-19.55,40.01-32.42l1.58-1.77l2.4-2.81l-0.08-0.04
	C432.27,357.83,445.51,321.25,445.51,283.46z M283.5,435.71h-0.08c-0.5-0.06-9.33-1.81-17.38-42.09
	c-1.57-7.85-2.97-16.56-4.18-25.92c7.22-0.51,14.47-0.76,21.6-0.76s14.39,0.26,21.61,0.76c-1.21,9.35-2.61,18.06-4.18,25.92
	C292.79,434.07,283.93,435.66,283.5,435.71z M184.33,288.36c0.52,28.85,5.62,56.66,14.83,80.84c-11.58,3.59-22.2,7.9-31.62,12.84
	c-22.34-26.23-35.12-59.3-36.22-93.67h53.01V288.36z M283.43,131.22h0.07c0.5,0.06,9.32,1.81,17.38,42.08
	c1.57,7.87,2.97,16.58,4.18,25.93c-7.23,0.51-14.48,0.76-21.61,0.76c-7.12,0-14.37-0.26-21.6-0.76c1.21-9.35,2.61-18.06,4.18-25.93
	C274.16,132.72,283.06,131.26,283.43,131.22z M256.95,278.56c0.15-24.45,1.44-48.38,3.75-69.59c15.03,1.1,30.51,1.09,45.53,0
	c2.31,21.21,3.6,45.15,3.75,69.59H256.95z M309.98,288.36c-0.15,24.38-1.44,48.32-3.75,69.6c-15.03-1.09-30.49-1.09-45.53,0
	c-2.31-21.21-3.6-45.15-3.75-69.6H309.98z M358.3,200.46c8.99,23.36,13.98,50.24,14.5,78.1h-53.02c-0.15-24.68-1.45-48.9-3.79-70.46
	C330.74,206.57,344.94,204,358.3,200.46z M314.83,198.38c-1.25-9.74-2.7-18.81-4.34-27c-3.39-16.95-7.42-29.68-12.02-37.99
	c22.15,6.46,42.18,27.08,56.03,57.94C341.96,194.58,328.64,196.94,314.83,198.38z M256.44,171.38c-1.65,8.27-3.11,17.33-4.35,27
	c-13.8-1.43-27.11-3.8-39.66-7.05c13.86-30.86,33.89-51.48,56.03-57.94C263.86,141.7,259.83,154.43,256.44,171.38z M250.94,208.11
	c-2.34,21.54-3.64,45.77-3.79,70.45h-53.02c0.52-27.87,5.51-54.75,14.5-78.1C221.99,204,236.2,206.57,250.94,208.11z M247.15,288.36
	c0.15,24.69,1.45,48.92,3.79,70.46c-14.74,1.54-28.95,4.11-42.31,7.65c-8.99-23.35-13.98-50.24-14.5-78.11H247.15z M252.09,368.55
	c1.23,9.64,2.7,18.71,4.35,27c3.39,16.95,7.42,29.68,12.02,37.99c-22.15-6.46-42.18-27.08-56.03-57.94
	C224.97,372.35,238.29,369.99,252.09,368.55z M310.49,395.55L310.49,395.55c1.64-8.21,3.1-17.28,4.34-27
	c13.81,1.43,27.12,3.8,39.67,7.05c-13.86,30.86-33.89,51.48-56.03,57.94C303.07,425.23,307.1,412.5,310.49,395.55z M315.99,358.82
	c2.34-21.55,3.64-45.78,3.79-70.46h53.02c-0.52,27.87-5.51,54.75-14.5,78.11C344.94,362.93,330.73,360.36,315.99,358.82z
	 M364.04,188.64c-2.91-6.6-6.17-12.92-9.7-18.83c-7.98-13.29-17.29-24.2-27.44-32.25c9.65,2.87,18.97,6.69,27.88,11.42l0.45,0.24
	c0.77,0.41,1.54,0.83,2.29,1.25c0.47,0.26,0.95,0.53,1.36,0.76l1.07,0.63c11.98,6.99,22.93,15.57,32.61,25.52
	C384.01,181.68,374.45,185.46,364.04,188.64z M209.02,150.7l0.4-0.22c0.76-0.42,1.52-0.84,2.21-1.22c0.11-0.06,0.22-0.12,0.33-0.18
	l0.2-0.11c8.92-4.73,18.25-8.55,27.87-11.42c-10.15,8.05-19.46,18.96-27.44,32.25c-3.53,5.9-6.79,12.22-9.7,18.82
	c-10.39-3.18-19.96-6.95-28.53-11.25c9.67-9.95,20.63-18.53,32.62-25.53l0.39-0.23c0.2-0.12,0.4-0.24,0.65-0.37
	C208.35,151.07,208.68,150.89,209.02,150.7z M131.31,278.56c1.1-34.37,13.88-67.43,36.22-93.66c9.43,4.94,20.04,9.25,31.62,12.84
	c-9.2,24.17-14.31,51.98-14.83,80.83h-53.01V278.56z M202.88,378.29c2.92,6.61,6.17,12.93,9.7,18.81
	c7.98,13.3,17.29,24.21,27.44,32.25c-9.63-2.87-18.95-6.68-27.86-11.4l-0.12-0.07c-0.14-0.07-0.28-0.15-0.34-0.18
	c-0.77-0.41-1.53-0.83-2.28-1.25l-0.44-0.25c-0.32-0.18-0.63-0.36-1-0.56c-0.19-0.1-0.37-0.21-0.55-0.32l-0.44-0.26
	c-11.99-6.99-22.95-15.57-32.63-25.54C182.93,385.23,192.5,381.46,202.88,378.29z M357.52,416.45c-0.76,0.42-1.53,0.85-2.21,1.22
	c-0.2,0.1-0.4,0.2-0.59,0.31c-8.89,4.71-18.2,8.52-27.82,11.38c10.15-8.05,19.46-18.96,27.44-32.26c3.53-5.88,6.79-12.2,9.7-18.81
	c10.39,3.18,19.96,6.95,28.53,11.24c-9.69,9.96-20.65,18.54-32.63,25.54l-1.7,0.97C357.99,416.19,357.73,416.33,357.52,416.45z
	 M435.62,288.36c-1.1,34.37-13.88,67.44-36.23,93.67c-9.44-4.95-20.06-9.26-31.62-12.84c9.2-24.17,14.31-51.98,14.83-80.84h53.02
	V288.36z M367.78,197.73c11.57-3.58,22.18-7.89,31.62-12.84c22.34,26.23,35.12,59.3,36.23,93.66H382.6
	C382.08,249.71,376.98,221.91,367.78,197.73z"/>
<g class="st0">
	<rect class="st1" width="566.93" height="566.93"/>
	<g class="st2">
		<path class="st6" d="M355.02,418.35H241.3c-18.49,0-33.53-17-33.53-37.89V238.13c0-20.89,15.04-37.89,33.53-37.89h219
			c18.49,0,33.53,17,33.53,37.89v142.33c0,20.89-15.04,37.89-33.53,37.89h-35.26v57.46L355.02,418.35z"/>
		<path class="st3" d="M460.29,203.74c16.58,0,30.03,15.39,30.03,34.39v142.33c0,18.99-13.44,34.39-30.03,34.39h-38.76v53.56
			l-65.27-53.56H241.3c-16.58,0-30.03-15.39-30.03-34.39V238.13c0-18.99,13.44-34.39,30.03-34.39H460.29 M460.29,196.74h-219
			c-20.42,0-37.03,18.57-37.03,41.39v142.33c0,22.82,16.61,41.39,37.03,41.39h112.47l63.33,51.97l11.44,9.39v-14.8v-46.56h31.76
			c20.42,0,37.03-18.57,37.03-41.39V238.13C497.32,215.31,480.71,196.74,460.29,196.74L460.29,196.74z"/>
	</g>
	<g class="st2">
		<path class="st3" d="M150.48,385.94h-37.27c-25.7,0-46.62-23.3-46.62-51.93V160.44c0-28.64,20.91-51.93,46.62-51.93h267.06
			c25.71,0,46.62,23.3,46.62,51.93v173.57c0,28.63-20.91,51.93-46.62,51.93H243.65l-93.17,76.46V385.94z"/>
		<path class="st6" d="M380.27,118.51c20.22,0,36.62,18.77,36.62,41.93v173.57c0,23.16-16.39,41.93-36.62,41.93h-140.2l-79.59,65.32
			v-65.32h-47.27c-20.22,0-36.62-18.77-36.62-41.93V160.44c0-23.16,16.39-41.93,36.62-41.93H380.27 M380.27,98.51H113.22
			c-15.41,0-30.34,6.97-40.96,19.13c-10.1,11.56-15.66,26.76-15.66,42.8v173.57c0,16.04,5.56,31.24,15.66,42.81
			c10.61,12.16,25.54,19.13,40.96,19.13h27.27v45.32v42.29l32.69-26.83l74.06-60.78h133.05c15.41,0,30.34-6.97,40.96-19.13
			c10.1-11.56,15.66-26.77,15.66-42.81V160.44c0-16.04-5.56-31.24-15.66-42.81C410.62,105.48,395.69,98.51,380.27,98.51
			L380.27,98.51z"/>
	</g>
	<path class="st1" d="M318.27,313.41c-6.57,7.12-14.19,13.25-22.61,18.17c-0.22,0.13-0.44,0.26-0.66,0.38
		c-0.29,0.17-0.6,0.33-0.89,0.5c-0.48,0.27-0.97,0.54-1.46,0.8c-0.1,0.05-0.2,0.1-0.29,0.16c-9.03,4.79-18.79,8.14-28.91,9.9
		c9.8-4.62,18.77-13.33,26.15-25.61c2.45-4.09,4.67-8.48,6.64-13.12C304.32,306.97,311.77,309.93,318.27,313.41z"/>
	<path class="st1" d="M293.91,303.94c-9.58,22.49-24.71,37.88-42,40.45c3.26-3.61,6.81-11.41,9.94-27.05
		c1.14-5.68,2.11-11.93,2.93-18.62C275.01,299.68,284.84,301.45,293.91,303.94z"/>
	<path class="st1" d="M262.41,298.51c-0.81,6.59-1.78,12.76-2.89,18.35c-5.1,25.47-10.9,27.85-12.69,27.91
		c-0.03,0-0.06,0.01-0.09,0.01s-0.06-0.01-0.08-0.01c-1.8-0.07-7.6-2.44-12.69-27.91c-1.12-5.6-2.08-11.76-2.89-18.35
		c5.15-0.41,10.38-0.63,15.66-0.63C252.03,297.88,257.26,298.1,262.41,298.51z"/>
	<path class="st1" d="M241.58,344.39c-17.29-2.58-32.42-17.96-42-40.45c9.07-2.49,18.9-4.26,29.12-5.22
		c0.82,6.69,1.8,12.93,2.94,18.62C234.77,332.98,238.33,340.78,241.58,344.39z"/>
	<path class="st1" d="M230.05,343.32c-10.12-1.77-19.88-5.12-28.91-9.9c-0.09-0.05-0.19-0.11-0.29-0.16
		c-0.49-0.26-0.98-0.53-1.46-0.8c-0.3-0.17-0.6-0.33-0.89-0.5c-0.23-0.13-0.44-0.26-0.66-0.38c-8.42-4.91-16.03-11.05-22.61-18.17
		c6.5-3.48,13.94-6.44,22.04-8.81c1.96,4.64,4.18,9.03,6.64,13.12C211.27,329.99,220.24,338.7,230.05,343.32z"/>
	<path class="st1" d="M196.36,302.39c-8.38,2.47-16.07,5.56-22.77,9.21c-14.83-16.87-23.92-38.9-24.21-63.01h37.04
		C186.56,268.01,190.01,286.54,196.36,302.39z"/>
	<path class="st1" d="M228.43,296.35c-10.45,0.98-20.49,2.8-29.76,5.37c-6.11-15.22-9.73-33.48-9.87-53.14h37.04
		C225.88,265.6,226.78,281.93,228.43,296.35z"/>
	<path class="st1" d="M265.27,248.58c-0.04,16.96-0.93,33.22-2.57,47.56c-5.24-0.43-10.58-0.65-15.95-0.65s-10.7,0.22-15.95,0.65
		c-1.64-14.34-2.53-30.61-2.57-47.56L265.27,248.58L265.27,248.58z"/>
	<path class="st1" d="M304.69,248.58c-0.14,19.65-3.76,37.92-9.87,53.14c-9.26-2.57-19.31-4.38-29.76-5.37
		c1.65-14.42,2.55-30.75,2.58-47.77H304.69z"/>
	<path class="st1" d="M344.12,248.58c-0.29,24.11-9.38,46.14-24.21,63.01c-6.71-3.65-14.39-6.74-22.77-9.21
		c6.34-15.85,9.8-34.38,9.94-53.8H344.12z"/>
	<path class="st1" d="M344.12,246.2h-37.04c-0.14-19.41-3.59-37.95-9.94-53.8c8.38-2.47,16.06-5.56,22.77-9.21
		C334.74,200.07,343.83,222.1,344.12,246.2z"/>
	<path class="st1" d="M318.27,181.38c-6.5,3.49-13.95,6.45-22.04,8.82c-1.96-4.64-4.18-9.03-6.64-13.12
		c-7.37-12.28-16.34-20.98-26.15-25.61c10.13,1.78,19.89,5.12,28.92,9.92c0.09,0.05,0.19,0.1,0.28,0.15
		c0.5,0.26,0.98,0.53,1.48,0.81c0.29,0.16,0.58,0.33,0.88,0.49c0.23,0.13,0.45,0.26,0.67,0.4
		C304.09,168.13,311.71,174.27,318.27,181.38z"/>
	<path class="st1" d="M293.91,190.86c-9.07,2.49-18.9,4.26-29.12,5.22c-0.82-6.69-1.79-12.94-2.93-18.62
		c-3.13-15.64-6.69-23.44-9.94-27.05C269.2,152.98,284.33,168.36,293.91,190.86z"/>
	<path class="st1" d="M304.69,246.2h-37.04c-0.04-17.01-0.93-33.34-2.58-47.76c10.44-0.98,20.49-2.8,29.76-5.37
		C300.94,208.29,304.56,226.55,304.69,246.2z"/>
	<path class="st1" d="M265.27,246.2h-37.04c0.04-16.95,0.93-33.21,2.57-47.55c5.24,0.43,10.58,0.65,15.95,0.65
		c5.38,0,10.71-0.22,15.95-0.65C264.34,212.99,265.23,229.25,265.27,246.2z"/>
	<path class="st1" d="M262.41,196.28c-5.15,0.41-10.38,0.63-15.67,0.63c-5.28,0-10.51-0.22-15.66-0.63
		c0.81-6.59,1.78-12.76,2.89-18.36c5.09-25.47,10.89-27.84,12.69-27.91c0.03,0,0.06-0.01,0.08-0.01c0.03,0,0.06,0.01,0.09,0.01
		c1.79,0.07,7.59,2.44,12.69,27.91C260.64,183.52,261.61,189.69,262.41,196.28z"/>
	<path class="st1" d="M241.58,150.4c-3.26,3.61-6.81,11.41-9.94,27.05c-1.14,5.68-2.12,11.93-2.94,18.62
		c-10.22-0.96-20.05-2.73-29.12-5.22C209.16,168.36,224.29,152.98,241.58,150.4z"/>
	<path class="st1" d="M228.43,198.44c-1.65,14.42-2.55,30.75-2.58,47.76H188.8c0.14-19.65,3.76-37.91,9.87-53.13
		C207.93,195.64,217.98,197.45,228.43,198.44z"/>
	<path class="st1" d="M230.05,151.46c-9.81,4.63-18.77,13.34-26.15,25.61c-2.45,4.1-4.67,8.49-6.64,13.12
		c-8.1-2.37-15.54-5.33-22.04-8.82c6.57-7.11,14.19-13.25,22.6-18.16c0.22-0.13,0.44-0.26,0.66-0.38c0.29-0.17,0.59-0.33,0.89-0.5
		c0.48-0.27,0.97-0.54,1.46-0.8c0.1-0.05,0.19-0.11,0.29-0.16C210.16,156.59,219.92,153.23,230.05,151.46z"/>
	<path class="st1" d="M196.36,192.4c-6.34,15.85-9.8,34.38-9.94,53.8h-37.04c0.29-24.1,9.38-46.13,24.21-63
		C180.28,186.85,187.97,189.94,196.36,192.4z"/>
	<g class="st2">
		<path class="st3" d="M348.4,247.39c0-23.7-8.31-46.64-23.44-64.86l0.09-0.05l-2.54-2.85c-7.22-8.07-15.67-14.91-25.08-20.33
			c-0.62-0.36-1.24-0.7-1.86-1.05c-0.08-0.05-0.17-0.1-0.26-0.14c-13.94-7.62-29.74-11.88-45.73-12.33c-0.06,0-0.13,0-0.14,0
			c-1.79-0.05-3.64-0.05-5.33,0c-0.07,0-0.13,0-0.25,0.01c-15.95,0.45-31.76,4.72-45.72,12.35l-0.21,0.12
			c-0.63,0.35-1.25,0.69-1.85,1.05c-9.42,5.41-17.86,12.25-25.09,20.33l-1,1.11l-1.6,1.86l0.06,0.03
			c-15.09,18.21-23.37,41.11-23.37,64.76c0,23.66,8.28,46.56,23.37,64.77l-0.11,0.06l2.65,2.94c7.23,8.08,15.67,14.92,25.1,20.34
			c0.59,0.34,1.18,0.67,1.8,1.01l0.26,0.15c14.17,7.74,29.55,11.89,45.77,12.35c0.06,0,0.12,0,0.15,0c0.89,0.02,1.78,0.03,2.68,0.03
			s1.79-0.01,2.64-0.03c0.06,0,0.12,0,0.18,0h0.06c15.96-0.45,31.76-4.72,45.69-12.34c0.09-0.05,0.18-0.1,0.27-0.15l0.39-0.22
			c0.48-0.26,0.95-0.53,1.42-0.8c9.43-5.42,17.87-12.26,25.1-20.34l0.99-1.11l1.51-1.76l-0.05-0.03
			C340.09,294.04,348.4,271.1,348.4,247.39z M246.77,342.9h-0.05c-0.31-0.04-5.85-1.14-10.9-26.4c-0.98-4.93-1.86-10.39-2.62-16.26
			c4.53-0.32,9.08-0.48,13.55-0.48s9.02,0.16,13.56,0.48c-0.76,5.87-1.64,11.33-2.62,16.26C252.6,341.87,247.04,342.87,246.77,342.9
			z M184.56,250.47c0.33,18.1,3.53,35.54,9.3,50.71c-7.26,2.25-13.92,4.95-19.84,8.05c-14.01-16.46-22.03-37.2-22.72-58.76
			L184.56,250.47L184.56,250.47z M246.73,151.89h0.05c0.31,0.04,5.85,1.14,10.9,26.39c0.98,4.94,1.87,10.4,2.62,16.27
			c-4.53,0.32-9.08,0.48-13.56,0.48c-4.47,0-9.02-0.16-13.55-0.48c0.76-5.87,1.64-11.33,2.62-16.26
			C240.91,152.84,246.49,151.92,246.73,151.89z M230.12,244.32c0.09-15.34,0.9-30.35,2.35-43.66c9.43,0.69,19.14,0.69,28.56,0
			c1.45,13.31,2.26,28.32,2.35,43.66H230.12z M263.38,250.47c-0.09,15.29-0.9,30.31-2.35,43.66c-9.43-0.69-19.13-0.69-28.56,0
			c-1.45-13.31-2.26-28.32-2.35-43.66H263.38z M293.69,195.33c5.64,14.65,8.77,31.51,9.1,48.99h-33.26
			c-0.09-15.48-0.91-30.68-2.38-44.2C276.4,199.16,285.31,197.55,293.69,195.33z M266.43,194.02c-0.78-6.11-1.7-11.8-2.72-16.93
			c-2.13-10.63-4.66-18.62-7.54-23.83c13.89,4.05,26.46,16.99,35.15,36.34C283.44,191.64,275.09,193.12,266.43,194.02z
			 M229.79,177.09c-1.04,5.18-1.95,10.87-2.73,16.93c-8.66-0.9-17.01-2.38-24.88-4.42c8.69-19.36,21.26-32.29,35.15-36.34
			C234.45,158.47,231.92,166.45,229.79,177.09z M226.35,200.12c-1.47,13.51-2.28,28.71-2.38,44.2h-33.26
			c0.33-17.48,3.46-34.34,9.1-48.99C208.19,197.55,217.1,199.16,226.35,200.12z M223.97,250.47c0.09,15.49,0.91,30.69,2.38,44.2
			c-9.25,0.96-18.16,2.58-26.54,4.8c-5.64-14.65-8.77-31.51-9.1-49H223.97z M227.06,300.77c0.77,6.05,1.69,11.74,2.73,16.93
			c2.13,10.64,4.66,18.62,7.54,23.83c-13.89-4.05-26.46-16.99-35.15-36.34C210.06,303.15,218.41,301.67,227.06,300.77z M263.7,317.7
			L263.7,317.7c1.03-5.15,1.94-10.84,2.72-16.93c8.66,0.9,17.01,2.38,24.88,4.42c-8.69,19.36-21.26,32.29-35.15,36.34
			C259.05,336.32,261.57,328.34,263.7,317.7z M267.15,294.67c1.47-13.52,2.28-28.72,2.38-44.2h33.26c-0.33,17.48-3.46,34.35-9.1,49
			C285.31,297.24,276.4,295.63,267.15,294.67z M297.3,187.91c-1.83-4.14-3.87-8.11-6.09-11.81c-5-8.34-10.84-15.18-17.21-20.23
			c6.05,1.8,11.9,4.2,17.49,7.16l0.28,0.15c0.49,0.26,0.96,0.52,1.44,0.79c0.29,0.17,0.59,0.33,0.85,0.48l0.67,0.4
			c7.51,4.39,14.39,9.77,20.46,16.01C309.82,183.55,303.82,185.92,297.3,187.91z M200.05,164.11l0.25-0.14
			c0.47-0.26,0.96-0.53,1.39-0.76c0.07-0.04,0.14-0.07,0.21-0.11l0.13-0.07c5.6-2.97,11.45-5.36,17.49-7.16
			c-6.37,5.05-12.21,11.89-17.21,20.23c-2.22,3.7-4.26,7.66-6.09,11.81c-6.52-1.99-12.52-4.36-17.89-7.06
			c6.07-6.24,12.94-11.62,20.47-16.01l0.25-0.14c0.13-0.07,0.25-0.15,0.41-0.23C199.63,164.35,199.84,164.23,200.05,164.11z
			 M151.3,244.32c0.69-21.56,8.71-42.3,22.72-58.75c5.91,3.1,12.57,5.8,19.84,8.05c-5.77,15.16-8.97,32.61-9.3,50.7H151.3z
			 M196.2,306.88c1.83,4.15,3.87,8.11,6.09,11.8c5.01,8.34,10.84,15.18,17.21,20.23c-6.04-1.8-11.89-4.19-17.48-7.15l-0.08-0.04
			c-0.09-0.05-0.17-0.09-0.21-0.11c-0.48-0.26-0.96-0.52-1.43-0.79l-0.28-0.16c-0.2-0.11-0.4-0.22-0.62-0.35
			c-0.12-0.07-0.23-0.13-0.35-0.2l-0.28-0.16c-7.52-4.39-14.39-9.77-20.47-16.02C183.69,311.23,189.69,308.87,196.2,306.88z
			 M293.2,330.82c-0.48,0.27-0.96,0.53-1.39,0.76c-0.13,0.06-0.25,0.13-0.37,0.2c-5.58,2.96-11.42,5.34-17.45,7.14
			c6.37-5.05,12.21-11.89,17.21-20.23c2.21-3.69,4.26-7.65,6.09-11.8c6.52,1.99,12.52,4.36,17.89,7.05
			c-6.08,6.25-12.95,11.63-20.47,16.02l-1.07,0.61C293.49,330.65,293.34,330.74,293.2,330.82z M342.2,250.47
			c-0.69,21.56-8.71,42.3-22.72,58.76c-5.92-3.1-12.58-5.81-19.84-8.05c5.77-15.16,8.97-32.61,9.3-50.71L342.2,250.47L342.2,250.47z
			 M299.64,193.62c7.26-2.25,13.91-4.95,19.84-8.05c14.01,16.46,22.03,37.2,22.72,58.75h-33.26
			C308.61,226.22,305.41,208.78,299.64,193.62z"/>
	</g>
</g>
<g id="Ebene_1_Kopie_3" class="st0">
	<rect class="st1" width="566.93" height="566.93"/>
	<g class="st2">
		<path class="st6" d="M355.02,418.35H241.3c-18.49,0-33.53-17-33.53-37.89V238.13c0-20.89,15.04-37.89,33.53-37.89h219
			c18.49,0,33.53,17,33.53,37.89v142.33c0,20.89-15.04,37.89-33.53,37.89h-35.26v57.46L355.02,418.35z"/>
		<path class="st3" d="M460.29,203.74c16.58,0,30.03,15.39,30.03,34.39v142.33c0,18.99-13.44,34.39-30.03,34.39h-38.76v53.56
			l-65.27-53.56H241.3c-16.58,0-30.03-15.39-30.03-34.39V238.13c0-18.99,13.44-34.39,30.03-34.39H460.29 M460.29,196.74h-219
			c-20.42,0-37.03,18.57-37.03,41.39v142.33c0,22.82,16.61,41.39,37.03,41.39h112.47l63.33,51.97l11.44,9.39v-14.8v-46.56h31.76
			c20.42,0,37.03-18.57,37.03-41.39V238.13C497.32,215.31,480.71,196.74,460.29,196.74L460.29,196.74z"/>
	</g>
	<g class="st2">
		<path class="st3" d="M150.48,385.94h-37.27c-25.7,0-46.62-23.3-46.62-51.93V160.44c0-28.64,20.91-51.93,46.62-51.93h267.06
			c25.71,0,46.62,23.3,46.62,51.93v173.57c0,28.63-20.91,51.93-46.62,51.93H243.65l-93.17,76.46V385.94z"/>
		<path class="st6" d="M380.27,118.51c20.22,0,36.62,18.77,36.62,41.93v173.57c0,23.16-16.39,41.93-36.62,41.93h-140.2l-79.59,65.32
			v-65.32h-47.27c-20.22,0-36.62-18.77-36.62-41.93V160.44c0-23.16,16.39-41.93,36.62-41.93H380.27 M380.27,98.51H113.22
			c-15.41,0-30.34,6.97-40.96,19.13c-10.1,11.56-15.66,26.76-15.66,42.8v173.57c0,16.04,5.56,31.24,15.66,42.81
			c10.61,12.16,25.54,19.13,40.96,19.13h27.27v45.32v42.29l32.69-26.83l74.06-60.78h133.05c15.41,0,30.34-6.97,40.96-19.13
			c10.1-11.56,15.66-26.77,15.66-42.81V160.44c0-16.04-5.56-31.24-15.66-42.81C410.62,105.48,395.69,98.51,380.27,98.51
			L380.27,98.51z"/>
	</g>
	<path class="st1" d="M348.4,247.39c0-23.7-8.31-46.64-23.44-64.86l0.09-0.05l-2.54-2.85c-7.22-8.07-15.67-14.91-25.08-20.33
		c-0.62-0.36-1.24-0.7-1.86-1.05c-0.08-0.05-0.17-0.1-0.26-0.14c-13.94-7.62-29.74-11.88-45.73-12.33c-0.06,0-0.13,0-0.14,0
		c-1.79-0.05-3.64-0.05-5.33,0c-0.07,0-0.13,0-0.25,0.01c-15.95,0.45-31.76,4.72-45.72,12.35l-0.21,0.12
		c-0.63,0.35-1.25,0.69-1.85,1.05c-9.42,5.41-17.86,12.25-25.09,20.33l-1,1.11l-1.6,1.86l0.06,0.03
		c-15.09,18.21-23.37,41.11-23.37,64.76c0,23.66,8.28,46.56,23.37,64.77l-0.11,0.06l2.65,2.94c7.23,8.08,15.67,14.92,25.1,20.34
		c0.59,0.34,1.18,0.67,1.8,1.01l0.26,0.15c14.17,7.74,29.55,11.89,45.77,12.35c0.06,0,0.12,0,0.15,0c0.89,0.02,1.78,0.03,2.68,0.03
		s1.79-0.01,2.64-0.03c0.06,0,0.12,0,0.18,0h0.06c15.96-0.45,31.76-4.72,45.69-12.34c0.09-0.05,0.18-0.1,0.27-0.15l0.39-0.22
		c0.48-0.26,0.95-0.53,1.42-0.8c9.43-5.42,17.87-12.26,25.1-20.34l0.99-1.11l1.51-1.76l-0.05-0.03
		C340.09,294.04,348.4,271.1,348.4,247.39z M246.77,342.9h-0.05c-0.31-0.04-5.85-1.14-10.9-26.4c-0.98-4.93-1.86-10.39-2.62-16.26
		c4.53-0.32,9.08-0.48,13.55-0.48s9.02,0.16,13.56,0.48c-0.76,5.87-1.64,11.33-2.62,16.26C252.6,341.87,247.04,342.87,246.77,342.9z
		 M184.56,250.47c0.33,18.1,3.53,35.54,9.3,50.71c-7.26,2.25-13.92,4.95-19.84,8.05c-14.01-16.46-22.03-37.2-22.72-58.76
		L184.56,250.47L184.56,250.47z M246.73,151.89h0.05c0.31,0.04,5.85,1.14,10.9,26.39c0.98,4.94,1.87,10.4,2.62,16.27
		c-4.53,0.32-9.08,0.48-13.56,0.48c-4.47,0-9.02-0.16-13.55-0.48c0.76-5.87,1.64-11.33,2.62-16.26
		C240.91,152.84,246.49,151.92,246.73,151.89z M230.12,244.32c0.09-15.34,0.9-30.35,2.35-43.66c9.43,0.69,19.14,0.69,28.56,0
		c1.45,13.31,2.26,28.32,2.35,43.66H230.12z M263.38,250.47c-0.09,15.29-0.9,30.31-2.35,43.66c-9.43-0.69-19.13-0.69-28.56,0
		c-1.45-13.31-2.26-28.32-2.35-43.66H263.38z M293.69,195.33c5.64,14.65,8.77,31.51,9.1,48.99h-33.26
		c-0.09-15.48-0.91-30.68-2.38-44.2C276.4,199.16,285.31,197.55,293.69,195.33z M266.43,194.02c-0.78-6.11-1.7-11.8-2.72-16.93
		c-2.13-10.63-4.66-18.62-7.54-23.83c13.89,4.05,26.46,16.99,35.15,36.34C283.44,191.64,275.09,193.12,266.43,194.02z
		 M229.79,177.09c-1.04,5.18-1.95,10.87-2.73,16.93c-8.66-0.9-17.01-2.38-24.88-4.42c8.69-19.36,21.26-32.29,35.15-36.34
		C234.45,158.47,231.92,166.45,229.79,177.09z M226.35,200.12c-1.47,13.51-2.28,28.71-2.38,44.2h-33.26
		c0.33-17.48,3.46-34.34,9.1-48.99C208.19,197.55,217.1,199.16,226.35,200.12z M223.97,250.47c0.09,15.49,0.91,30.69,2.38,44.2
		c-9.25,0.96-18.16,2.58-26.54,4.8c-5.64-14.65-8.77-31.51-9.1-49H223.97z M227.06,300.77c0.77,6.05,1.69,11.74,2.73,16.93
		c2.13,10.64,4.66,18.62,7.54,23.83c-13.89-4.05-26.46-16.99-35.15-36.34C210.06,303.15,218.41,301.67,227.06,300.77z M263.7,317.7
		L263.7,317.7c1.03-5.15,1.94-10.84,2.72-16.93c8.66,0.9,17.01,2.38,24.88,4.42c-8.69,19.36-21.26,32.29-35.15,36.34
		C259.05,336.32,261.57,328.34,263.7,317.7z M267.15,294.67c1.47-13.52,2.28-28.72,2.38-44.2h33.26c-0.33,17.48-3.46,34.35-9.1,49
		C285.31,297.24,276.4,295.63,267.15,294.67z M297.3,187.91c-1.83-4.14-3.87-8.11-6.09-11.81c-5-8.34-10.84-15.18-17.21-20.23
		c6.05,1.8,11.9,4.2,17.49,7.16l0.28,0.15c0.49,0.26,0.96,0.52,1.44,0.79c0.29,0.17,0.59,0.33,0.85,0.48l0.67,0.4
		c7.51,4.39,14.39,9.77,20.46,16.01C309.82,183.55,303.82,185.92,297.3,187.91z M200.05,164.11l0.25-0.14
		c0.47-0.26,0.96-0.53,1.39-0.76c0.07-0.04,0.14-0.07,0.21-0.11l0.13-0.07c5.6-2.97,11.45-5.36,17.49-7.16
		c-6.37,5.05-12.21,11.89-17.21,20.23c-2.22,3.7-4.26,7.66-6.09,11.81c-6.52-1.99-12.52-4.36-17.89-7.06
		c6.07-6.24,12.94-11.62,20.47-16.01l0.25-0.14c0.13-0.07,0.25-0.15,0.41-0.23C199.63,164.35,199.84,164.23,200.05,164.11z
		 M151.3,244.32c0.69-21.56,8.71-42.3,22.72-58.75c5.91,3.1,12.57,5.8,19.84,8.05c-5.77,15.16-8.97,32.61-9.3,50.7H151.3z
		 M196.2,306.88c1.83,4.15,3.87,8.11,6.09,11.8c5.01,8.34,10.84,15.18,17.21,20.23c-6.04-1.8-11.89-4.19-17.48-7.15l-0.08-0.04
		c-0.09-0.05-0.17-0.09-0.21-0.11c-0.48-0.26-0.96-0.52-1.43-0.79l-0.28-0.16c-0.2-0.11-0.4-0.22-0.62-0.35
		c-0.12-0.07-0.23-0.13-0.35-0.2l-0.28-0.16c-7.52-4.39-14.39-9.77-20.47-16.02C183.69,311.23,189.69,308.87,196.2,306.88z
		 M293.2,330.82c-0.48,0.27-0.96,0.53-1.39,0.76c-0.13,0.06-0.25,0.13-0.37,0.2c-5.58,2.96-11.42,5.34-17.45,7.14
		c6.37-5.05,12.21-11.89,17.21-20.23c2.21-3.69,4.26-7.65,6.09-11.8c6.52,1.99,12.52,4.36,17.89,7.05
		c-6.08,6.25-12.95,11.63-20.47,16.02l-1.07,0.61C293.49,330.65,293.34,330.74,293.2,330.82z M342.2,250.47
		c-0.69,21.56-8.71,42.3-22.72,58.76c-5.92-3.1-12.58-5.81-19.84-8.05c5.77-15.16,8.97-32.61,9.3-50.71L342.2,250.47L342.2,250.47z
		 M299.64,193.62c7.26-2.25,13.91-4.95,19.84-8.05c14.01,16.46,22.03,37.2,22.72,58.75h-33.26
		C308.61,226.22,305.41,208.78,299.64,193.62z"/>
</g>
</svg>
