<svg xmlns="http://www.w3.org/2000/svg" viewBox="0 0 69.11 69.11"><g><g><rect width="69.11" height="69.11" style="fill:#686831"/><path d="M59.31,15.06H9.8a1.64,1.64,0,0,0-1.65,1.65V52.43A1.64,1.64,0,0,0,9.8,54.07H59.28a1.64,1.64,0,0,0,1.65-1.64V16.71A1.63,1.63,0,0,0,59.31,15.06Z" style="fill:#fff"/><circle cx="12.88" cy="19.33" r="1.43" style="fill:#b15346"/><circle cx="21.46" cy="19.36" r="1.43" style="fill:#75b752"/><circle cx="17.17" cy="19.33" r="1.43" style="fill:#d6924a"/><rect x="11.45" y="23.42" width="46.19" height="27.36" style="fill:#686831;opacity:0.3"/><path d="M44.11,35.78l-1.63-5.54A1.67,1.67,0,0,0,40.87,29H28.22a1.66,1.66,0,0,0-1.61,1.25L25,35.78H23a1.66,1.66,0,0,0-1.66,1.67h0A1.66,1.66,0,0,0,23,39.11H46a1.66,1.66,0,0,0,1.66-1.66h0A1.66,1.66,0,0,0,46,35.78Z" style="fill:#686831"/><path d="M35.58,41.49H25v2.83a1.9,1.9,0,0,0,1.9,1.89h4a1.89,1.89,0,0,0,1.84-1.44l.41-1.66H36l.42,1.66a1.89,1.89,0,0,0,1.84,1.44h4a1.9,1.9,0,0,0,1.9-1.89V41.49Z" style="fill:#686831"/></g></g></svg>
